<?xml version="1.0" standalone="no"?>
<!DOCTYPE svg PUBLIC "-//W3C//DTD SVG 20010904//EN"
 "http://www.w3.org/TR/2001/REC-SVG-20010904/DTD/svg10.dtd">
<svg version="1.0" xmlns="http://www.w3.org/2000/svg"
 width="700.000000pt" height="700.000000pt" viewBox="0 0 700.000000 700.000000"
 preserveAspectRatio="xMidYMid meet">
<metadata>
Created by potrace 1.14, written by Peter Selinger 2001-2017
</metadata>
<g transform="translate(0.000000,700.000000) scale(0.100000,-0.100000)"
fill="#000000" stroke="none">
<path d="M0 5974 l0 -1026 583 -582 583 -583 0 -359 c-1 -198 0 -366 2 -374 3
-14 63 -15 505 -14 481 1 505 2 567 22 148 48 250 149 303 301 20 54 20 88 22
1051 1 734 -2 1010 -11 1052 -36 177 -169 312 -354 359 -48 12 -1016 17 -1027
5 -4 -3 -7 -212 -7 -464 l-1 -457 -116 -3 -116 -3 -1 585 0 585 625 -1 c680
-1 680 -1 819 -59 149 -62 277 -185 349 -334 78 -161 75 -110 72 -1275 l-2
-1035 -27 -77 c-71 -201 -219 -361 -401 -435 -129 -52 -154 -54 -796 -54 -328
0 -606 0 -618 0 l-21 1 0 441 0 442 -466 466 -466 466 0 -2308 0 -2307 3500 0
3500 0 0 3500 0 3500 -3500 0 -3500 0 0 -1026z m4088 -484 l581 -581 578 581
578 580 122 -1 121 -1 0 -1634 0 -1634 -117 0 -117 0 1 1453 c0 798 -1 1460
-4 1470 -2 12 -166 -145 -584 -563 l-580 -581 -579 578 c-318 318 -581 580
-583 582 -3 3 -5 -353 -5 -790 0 -437 0 -1099 0 -1471 l0 -678 -115 0 -115 0
0 90 c0 50 0 776 0 1615 0 839 0 1533 0 1544 0 17 10 19 119 20 l118 1 581
-580z m-2957 -3159 l36 -1 -1 -362 -1 -363 181 -181 181 -182 70 2 70 2 51 51
c29 29 52 57 52 62 0 6 -31 41 -69 79 l-70 68 1 412 1 412 43 1 c24 0 71 0
104 0 33 0 66 0 73 0 10 -1 13 -75 13 -365 l0 -365 178 -178 179 -178 54 -1
53 -1 0 46 c1 25 1 270 1 544 l0 497 32 1 c37 1 153 1 183 0 20 -1 20 -2 20
-658 l-1 -658 -217 -3 -217 -2 -90 90 c-50 49 -94 90 -97 90 -3 0 -47 -40 -97
-90 l-91 -90 -163 0 -163 0 -249 249 -249 248 0 409 c0 333 3 410 14 414 7 3
44 4 81 3 37 -1 84 -2 104 -2z m2381 -28 c92 -44 141 -92 184 -178 l37 -74 1
-358 c2 -374 -2 -410 -44 -493 -26 -52 -104 -124 -169 -156 -56 -29 -56 -29
-251 -29 l-195 0 -60 29 c-76 38 -149 110 -183 184 l-27 57 0 390 0 390 29 57
c52 103 151 183 254 203 29 6 122 10 207 9 148 -1 155 -2 217 -31z m1127 17
c89 -24 182 -105 228 -198 l28 -57 0 -395 0 -395 -32 -61 c-40 -76 -123 -153
-195 -179 -46 -17 -79 -20 -238 -20 l-185 0 -67 33 c-98 48 -166 129 -199 237
-5 17 -10 192 -10 390 -1 338 0 363 19 413 47 123 148 212 270 237 69 14 323
11 381 -5z m1171 0 c62 -17 146 -75 186 -129 67 -91 72 -124 72 -511 0 -372
-4 -413 -52 -489 -37 -59 -102 -116 -165 -148 l-56 -28 -330 0 -330 0 -1 657
-1 657 26 3 c78 9 610 -1 651 -12z"/>
<path d="M3105 2081 c-73 -45 -70 -27 -72 -390 0 -182 3 -340 8 -357 11 -36
63 -83 93 -85 86 -6 256 -3 277 3 14 5 39 23 55 39 l29 30 3 340 c3 335 2 341
-19 376 -33 53 -68 63 -216 63 -107 0 -133 -3 -158 -19z"/>
<path d="M4267 2080 c-63 -40 -62 -33 -64 -402 -2 -333 -2 -336 20 -370 37
-56 66 -64 219 -63 150 1 172 8 208 67 17 28 18 54 17 367 -2 374 -2 372 -72
405 -50 24 -289 22 -328 -4z"/>
<path d="M5370 2073 c-1 -34 -1 -780 0 -809 0 -20 4 -20 183 -19 100 1 188 3
195 4 22 2 80 70 83 98 2 15 4 172 3 348 -1 286 -3 324 -18 347 -33 51 -67 58
-265 58 l-181 0 0 -27z"/>
</g>
</svg>
