<?xml version="1.0" encoding="utf-8"?>
<!-- Generator: Adobe Illustrator 22.0.1, SVG Export Plug-In . SVG Version: 6.00 Build 0)  -->
<svg version="1.1" id="Layer_1" xmlns="http://www.w3.org/2000/svg" xmlns:xlink="http://www.w3.org/1999/xlink" x="0px" y="0px"
	 viewBox="0 0 960 960" style="enable-background:new 0 0 960 960;" xml:space="preserve">
<style type="text/css">
	.st0{fill:none;stroke:#4C4C56;stroke-width:40;stroke-miterlimit:10;}
	.st1{fill:none;stroke:#FFFFFF;stroke-width:40;stroke-miterlimit:10;}
	.st2{fill:#4C4C56;}
	.st3{fill:#4C4C56;stroke:#4C4C56;stroke-width:5;stroke-miterlimit:10;}
	.st4{fill:#4C4C56;stroke:#4C4C56;stroke-width:14;stroke-linejoin:round;stroke-miterlimit:10;}
	.st5{fill:#4C4C56;stroke:#4C4C56;stroke-width:14;stroke-miterlimit:10;}
	.st6{fill:#4C4C56;stroke:#4C4C56;stroke-width:7;stroke-miterlimit:10;}
	.st7{fill:none;stroke:#4C4C56;stroke-width:50;stroke-miterlimit:10;stroke-dasharray:40,40;}
	.st8{fill:#FFFFFF;}
	.st9{fill:none;stroke:#FFFFFF;stroke-width:80;stroke-miterlimit:10;}
	.st10{fill:none;stroke:#4C4C56;stroke-width:2;stroke-miterlimit:10;}
	.st11{fill:none;stroke:#4C4C56;stroke-width:80;stroke-linejoin:round;stroke-miterlimit:10;}
	.st12{fill:none;stroke:#FFFFFF;stroke-width:80;stroke-linejoin:round;stroke-miterlimit:10;}
	.st13{fill:none;stroke:#4C4C56;stroke-width:6;stroke-miterlimit:10;}
	.st14{fill:#4C4C56;stroke:#4C4C56;stroke-width:8;stroke-miterlimit:10;}
</style>
<g>
	<path class="st2" d="M806.1,234.3c-18-40.2-42.9-71.1-74.6-92.6c-31.8-21.5-67.9-32.3-108.4-32.3s-76.6,10.8-108.4,32.3
		c-31.8,21.5-56.5,52.4-74.3,92.6c-17.8,40.3-26.6,87.6-26.6,142.1c0,54.5,8.9,101.9,26.6,142.1c17.7,40.3,42.5,71.1,74.3,92.6
		c31.7,21.5,67.9,32.3,108.4,32.3s76.6-10.7,108.4-32.3c31.7-21.5,56.6-52.4,74.6-92.6c18-40.2,27-87.6,27-142.1
		C833.1,321.9,824.1,274.5,806.1,234.3z M758.1,494.1c-13,32.5-31.1,57.3-54.4,74.3c-23.3,17-50.1,25.5-80.6,25.5
		c-30.5,0-57.4-8.5-80.6-25.5c-23.3-17-41.4-41.7-54.4-74.3c-13-32.5-19.5-71.7-19.5-117.8c0-46,6.5-85.2,19.5-117.8
		c13-32.5,31.1-57.2,54.4-74.3c23.3-17,50.1-25.5,80.6-25.5c30.5,0,57.4,8.5,80.6,25.5c23.3,17,41.4,41.8,54.4,74.3
		c13,32.5,19.5,71.8,19.5,117.8C777.6,422.4,771.1,461.6,758.1,494.1z"/>
	<path class="st2" d="M221.3,824.8c11.8,6.3,25.1,9.4,39.9,9.4c14.8,0,28.1-3.1,39.9-9.4c11.8-6.3,21.1-14.9,27.8-26
		c6.7-11.1,10.1-23.5,10.1-37.4c0-13.9-3.4-26.3-10.1-37.4c-6.7-11.1-16-19.7-27.8-26c-11.8-6.3-25.1-9.4-39.9-9.4
		c-14.8,0-28.1,3.1-39.9,9.4c-11.8,6.3-21.1,14.9-27.8,26c-6.7,11.1-10.1,23.5-10.1,37.4c0,13.9,3.4,26.3,10.1,37.4
		C200.2,809.8,209.5,818.5,221.3,824.8z M228.4,740.5c3.3-6.1,7.9-10.8,13.6-14.1c5.7-3.3,12.1-5,19.2-5c7.1,0,13.5,1.7,19.2,5
		c5.7,3.3,10.3,8,13.6,14.1c3.3,6.1,5,13,5,20.9c0,7.9-1.7,14.8-5,20.9c-3.3,6.1-7.9,10.8-13.6,14.1c-5.7,3.3-12.1,5-19.2,5
		c-7.1,0-13.5-1.7-19.2-5c-5.7-3.3-10.3-8-13.6-14.1c-3.3-6.1-5-13-5-20.9C223.4,753.5,225,746.5,228.4,740.5z"/>
	<polygon class="st2" points="403.2,831.4 442.6,831.4 442.6,777.8 460.6,777.8 492.4,831.4 537,831.4 492.8,759 536.6,691.4 
		495,691.4 461.6,745.8 442.6,745.8 442.6,691.4 403.2,691.4 	"/>
	<rect x="596.7" y="691.4" class="st2" width="39" height="140"/>
	<path class="st2" d="M824.7,745.8c3.3-5.2,4.9-11.2,4.9-18c0-11.6-4.6-20.6-13.9-26.9c-9.3-6.3-22.3-9.5-39.1-9.5h-68v140h71.8
		c17.7,0,31.4-3.6,41.1-10.7c9.7-7.1,14.5-16.9,14.5-29.3c0-8.3-2.2-15.2-6.5-20.8c-4.3-5.6-10.6-9.7-18.9-12.4
		C816.8,755.1,821.5,751,824.7,745.8z M747.6,719.8h25.2c11.2,0,16.8,4.6,16.8,13.8c0,9.2-5.6,13.8-16.8,13.8h-25.2V719.8z
		 M778.8,803h-31.2v-28.8h31.2c11.5,0,17.2,4.7,17.2,14.2C796,798.1,790.3,803,778.8,803z"/>
	<path class="st2" d="M0,0l0,197.8l22.7,19.6c34-39,81.8-58.5,143.3-58.5c39.5,0,69.9,8.6,91.1,25.9c21.2,17.3,31.9,41.4,31.9,72.4
		c0,20-4.9,39.9-14.6,59.6c-9.8,19.8-28.4,43.1-55.9,70.1L0.3,600.6v38.3h404.3v-48H79.8l178.5-175.5c33.5-32.5,56.3-61.2,68.3-86.3
		c12-25,18-51,18-78c0-44-15.6-78.6-46.9-103.9c-31.3-25.2-73.6-37.9-127.1-37.9c-40,0-75.9,6.5-107.6,19.5
		c-8,3.3-15.6,6.9-22.9,10.8V40h880v880H40.1l0-125.2h24.4c12.7,0,23.7-2.1,33-6.3c9.3-4.2,16.5-10.2,21.6-17.9
		c5.1-7.7,7.6-16.9,7.6-27.4c0-10.5-2.5-19.7-7.6-27.5c-5.1-7.8-12.3-13.8-21.6-18c-9.3-4.2-20.3-6.3-33-6.3h-64L-0.1,960H960V0H0z
		 M40.1,722.6h22c8.1,0,14.3,1.8,18.4,5.4c4.1,3.6,6.2,8.7,6.2,15.2c0,6.5-2.1,11.6-6.2,15.1c-4.1,3.5-10.3,5.3-18.4,5.3h-22V722.6z
		"/>
</g>
</svg>
