<?xml version="1.0" encoding="utf-8"?>
<!-- Generator: Adobe Illustrator 22.0.1, SVG Export Plug-In . SVG Version: 6.00 Build 0)  -->
<svg version="1.1" id="Layer_1" xmlns="http://www.w3.org/2000/svg" xmlns:xlink="http://www.w3.org/1999/xlink" x="0px" y="0px"
	 viewBox="0 0 960 960" style="enable-background:new 0 0 960 960;" xml:space="preserve">
<style type="text/css">
	.st0{fill:none;stroke:#4C4C56;stroke-width:40;stroke-miterlimit:10;}
	.st1{fill:none;stroke:#FFFFFF;stroke-width:40;stroke-miterlimit:10;}
	.st2{fill:#4C4C56;}
	.st3{fill:#4C4C56;stroke:#4C4C56;stroke-width:5;stroke-miterlimit:10;}
	.st4{fill:#4C4C56;stroke:#4C4C56;stroke-width:14;stroke-linejoin:round;stroke-miterlimit:10;}
	.st5{fill:#4C4C56;stroke:#4C4C56;stroke-width:14;stroke-miterlimit:10;}
	.st6{fill:#4C4C56;stroke:#4C4C56;stroke-width:7;stroke-miterlimit:10;}
	.st7{fill:none;stroke:#4C4C56;stroke-width:50;stroke-miterlimit:10;stroke-dasharray:40,40;}
	.st8{fill:#FFFFFF;}
	.st9{fill:none;stroke:#FFFFFF;stroke-width:80;stroke-miterlimit:10;}
	.st10{fill:none;stroke:#4C4C56;stroke-width:2;stroke-miterlimit:10;}
	.st11{fill:none;stroke:#4C4C56;stroke-width:80;stroke-linejoin:round;stroke-miterlimit:10;}
	.st12{fill:none;stroke:#FFFFFF;stroke-width:80;stroke-linejoin:round;stroke-miterlimit:10;}
	.st13{fill:none;stroke:#4C4C56;stroke-width:6;stroke-miterlimit:10;}
	.st14{fill:#4C4C56;stroke:#4C4C56;stroke-width:8;stroke-miterlimit:10;}
</style>
<g>
	<path class="st2" d="M483,317.9c-85.1-2.7-158.1,67.1-158.9,154.6c-0.8,86,65.7,154.9,153.4,157.6c84.7,2.6,155.8-66.6,158.5-154
		C638.7,392.3,569.4,320.7,483,317.9z M480.4,600c-69.6,0.5-126.7-57.3-126.3-127.9c0.3-67.6,57.8-124.2,126.1-124.1
		c68.7,0,126.2,57.6,125.7,125.9C605.4,543.4,549.5,599.5,480.4,600z"/>
	<path class="st2" d="M480.5,400.7c-41.2-0.2-74,32.3-74.1,73.4c-0.1,40.3,32.6,73.1,73,73.2c40.9,0.2,73.4-31.6,73.9-72.1
		C553.8,433.8,521.6,400.9,480.5,400.7z"/>
	<path class="st2" d="M628.3,728.8c18.3,14.2,37,27.8,55.9,41.9c35.5-23.9,64.8-53.2,89-87.7c1.7-2.4,0.3-8.6-1.8-11.5
		c-12-16.8-24.8-33-36.7-49.9c-2.3-3.3-3-9.4-1.6-13.1c6.3-17,13.2-33.7,20.7-50.2c1.7-3.7,6.4-7.7,10.3-8.3
		c19.9-3.5,40-6.1,60.1-8.6c7.3-0.9,11-3.8,12.1-11.4c5-37.4,5.2-74.7-0.2-112.1c-1-7-4-10-11-10.8c-19.7-2.4-39.2-5.9-58.9-8
		c-8.1-0.9-11.1-4.4-13.7-11.8c-5.4-15.5-11.7-30.7-18.9-45.4c-3.4-6.9-2.5-11.2,1.9-16.8c14-18,27.4-36.3,41.4-55.1
		c-25.3-36.6-55.7-67.6-92.7-92.6c-18.7,14-37.1,27.4-55,41.4c-5.7,4.5-10,5-16.8,1.7c-15.1-7.3-30.7-13.9-46.6-19.4
		c-7.3-2.5-9.7-6.1-10.5-13.2c-2.3-19.3-5.6-38.4-7.9-57.6c-0.9-8-4.3-11.4-12.4-12.5c-36.6-5-73.1-5-109.7,0
		c-8,1.1-11.5,4.4-12.4,12.5c-2.2,19.3-5.6,38.4-7.8,57.6c-0.8,7.2-3.2,10.7-10.5,13.2c-15.9,5.5-31.5,11.9-46.6,19.3
		c-6.9,3.4-11.2,2.5-16.8-1.8c-18-13.9-36.3-27.3-54.9-41.3c-37,25.2-67.6,56-92.7,92.6c14.4,19.2,28.5,37.5,41.9,56.4
		c2.3,3.2,3.1,9.4,1.7,13.1c-6.3,17-13.2,33.7-20.8,50.1c-1.8,3.9-7.1,8-11.3,8.8c-19.1,3.4-38.3,6-57.6,8.2
		c-8.3,1-12.3,3.9-13.5,12.8c-4.8,36.6-4.8,73.1,0,109.7c1.1,8.3,5,11.3,12.7,12.3c19.7,2.4,39.3,5,58.8,8.5c4.2,0.7,9.1,5.1,11,9.1
		c7.3,15.6,12.7,32.1,20.3,47.6c3.4,7,2.3,11.2-2,16.8c-13.9,18-27.3,36.3-41.2,55c24.1,35.2,53.2,64.7,87.7,88.8
		c2.4,1.7,8.6,0.4,11.6-1.7c16.5-11.7,32.8-23.8,48.7-36.2c5.2-4.1,9.2-5,15.7-1.9c15.6,7.4,31.6,14,47.8,19.8
		c6.7,2.4,9.2,5.5,10,12.3c2.3,19.7,5.6,39.2,8,58.9c0.9,7.4,3.9,10.9,11.5,11.9c37,5.1,74,5.1,111,0.1c8.4-1.1,11.1-5.3,12-12.9
		c2.4-19.7,5-39.3,8.5-58.8c0.8-4.1,5.2-9,9.2-10.9c15.6-7.3,32-13,47.5-20.4C618.8,724.4,622.8,724.6,628.3,728.8z M537.7,722.1
		c-7,2.7-10,5.9-10.9,12.9c-2.4,18.8-5.6,37.5-7.8,56.4c-0.8,7.4-3.8,10.3-11.1,10.2c-18.5-0.2-37.1-0.3-55.6,0.1
		c-8.3,0.2-10.7-3.7-11.6-11.2c-2.2-18.8-5.5-37.5-7.8-56.4c-0.8-6.9-4.2-9.4-10.5-11.9c-25.8-10-51.5-20.6-76.8-31.9
		c-6.6-2.9-10.9-3.6-16.9,1.1c-17.2,13.6-35,26.3-55.3,41.5c-17.5-17.5-34.9-35-52.5-52.6c15.3-20.5,28.9-38.1,41.6-56.4
		c2.4-3.4,2.8-10.1,1.2-14.1c-10.5-26.6-21.5-52.9-33-79c-1.8-4-6.7-8.5-10.8-9.2c-19-3.5-38.3-6.2-57.5-8.4c-6.8-0.8-10-3-10-9.9
		c0.2-19.8-0.2-39.6,0.7-59.3c0.1-3.1,5.4-7.9,8.9-8.6c19.1-3.5,38.3-6.2,57.5-8.5c6.9-0.8,9.5-4,12-10.4
		c10.3-26.2,21.1-52.2,32.6-77.8c2.9-6.5,2.4-10.4-1.7-15.7c-13.4-17.3-26.3-35-42-56c17.6-17.2,35.3-34.4,53.3-51.9
		c19.4,14.5,36.8,27,53.7,40.3c6.5,5.1,11.1,5.4,19,1.8c24.8-11.4,50.1-21.7,75.6-31.4c6.9-2.6,10.1-5.7,11-12.9
		c2.4-19.2,5-38.5,8.5-57.5c0.6-3.4,5.8-8.3,9.1-8.5c19.3-0.8,38.7-0.3,58.1-0.6c7-0.1,9.3,3.2,10.1,9.7c2.3,18.8,5.4,37.6,7.8,56.4
		c1,7.6,4.5,10.8,11.9,13.5c25.2,9.4,50,19.8,74.4,31c7.4,3.4,12.1,4.5,19-1.1c16.7-13.5,34.2-26,54.7-41.3
		c17.2,17.5,34.5,35,52.2,52.9c-14.9,20-27.6,37.8-41.2,54.8c-5.2,6.5-4.1,11-1,17.9c11.1,24.9,21.6,50.1,31.3,75.7
		c2.6,6.9,5.6,10.2,12.7,11.1c18.8,2.3,37.6,5.5,56.4,7.8c6.9,0.8,10.7,2.9,10.6,10.7c-0.3,21.7-0.1,43.4-0.1,66
		c-23.3,3.3-45,6.5-66.6,9.2c-7,0.9-10.2,3.6-12.9,10.7c-9.8,25.9-20.6,51.5-31.8,76.8c-2.9,6.6-3.4,10.9,1.3,16.9
		c13.6,17.2,26.3,35,41.7,55.5c-17.7,17.3-35.3,34.5-53.1,51.9c-19.4-14.5-36.9-27-53.7-40.4c-6.6-5.2-11.2-5.2-19-1.7
		C588.5,702,563.2,712.4,537.7,722.1z"/>
	<path class="st2" d="M697.1,471.6c-1-119.3-96.2-213.6-214.4-214.9c-122.2-1.4-219.3,95.1-220.3,218c-1,117.9,97,216.1,216.5,216.8
		C600.1,692.2,698.2,594.8,697.1,471.6z M479.7,657.5c-91.2,0.9-185.7-72-183.3-188.5c2.2-105.4,89.5-178.6,183.4-178.5
		c99.2,0.1,183.8,79.5,184.3,184.1C664.5,575.4,580.9,657.4,479.7,657.5z"/>
	<path class="st2" d="M480,0v40h440v440c0,57.2-10.8,112.9-32.2,165.6c-22.1,54.6-54.6,103.5-96.7,145.5
		c-32.1,32.1-68.2,58.6-107.8,79.2L613,800v160h160l-60.1-60.1c38.9-21.6,74.6-48.5,106.5-80.5c45.8-45.8,81.3-99.2,105.4-158.8
		C948.2,603.1,960,542.3,960,480V0H480z"/>
	<path class="st2" d="M40,480c0-57.2,10.8-112.9,32.2-165.6c22.1-54.6,54.6-103.5,96.7-145.5C200.8,137,236.7,110.6,276,90l70,70V0
		H186l60.5,60.5c-38.6,21.5-74.1,48.3-105.9,80.1c-45.8,45.8-81.3,99.2-105.4,158.8C11.8,356.9,0,417.7,0,480v480h480v-40H40V480z"
		/>
</g>
</svg>
