<?xml version="1.0" encoding="utf-8"?>
<!-- Generator: Adobe Illustrator 22.0.1, SVG Export Plug-In . SVG Version: 6.00 Build 0)  -->
<svg version="1.1" id="Layer_1" xmlns="http://www.w3.org/2000/svg" xmlns:xlink="http://www.w3.org/1999/xlink" x="0px" y="0px"
	 viewBox="0 0 960 960" style="enable-background:new 0 0 960 960;" xml:space="preserve">
<style type="text/css">
	.st0{fill:none;stroke:#4C4C56;stroke-width:40;stroke-miterlimit:10;}
	.st1{fill:none;stroke:#FFFFFF;stroke-width:40;stroke-miterlimit:10;}
	.st2{fill:#4C4C56;}
	.st3{fill:#4C4C56;stroke:#4C4C56;stroke-width:5;stroke-miterlimit:10;}
	.st4{fill:#4C4C56;stroke:#4C4C56;stroke-width:14;stroke-linejoin:round;stroke-miterlimit:10;}
	.st5{fill:#4C4C56;stroke:#4C4C56;stroke-width:14;stroke-miterlimit:10;}
	.st6{fill:#4C4C56;stroke:#4C4C56;stroke-width:7;stroke-miterlimit:10;}
	.st7{fill:none;stroke:#4C4C56;stroke-width:50;stroke-miterlimit:10;stroke-dasharray:40,40;}
	.st8{fill:#FFFFFF;}
	.st9{fill:none;stroke:#FFFFFF;stroke-width:80;stroke-miterlimit:10;}
	.st10{fill:none;stroke:#4C4C56;stroke-width:2;stroke-miterlimit:10;}
	.st11{fill:none;stroke:#4C4C56;stroke-width:80;stroke-linejoin:round;stroke-miterlimit:10;}
	.st12{fill:none;stroke:#FFFFFF;stroke-width:80;stroke-linejoin:round;stroke-miterlimit:10;}
	.st13{fill:none;stroke:#4C4C56;stroke-width:6;stroke-miterlimit:10;}
	.st14{fill:#4C4C56;stroke:#4C4C56;stroke-width:8;stroke-miterlimit:10;}
</style>
<g>
	<path class="st2" d="M35.4,473.4c1.2,0,2.4,0.1,3.6,0.1V40h237.3c26.9-15.5,54.3-28.9,82.2-40H-1v480.5
		C9.7,475.3,22,472.8,35.4,473.4z"/>
	<path class="st2" d="M590,379.7c-3.1-10.3-8.6-18.1-16.4-23.2c3.2,11.5,3.4,24,0.3,36.8c-0.5,2.2-1.1,4.4-1.6,6.6
		c1,2.5,2.1,4.9,3.1,7.4c0.5,1.1,1,2.3,1.5,3.4c8.4-1.7,17-1.7,25.6,0c-0.6-1.5-1.3-3-2-4.5C595.9,396.7,592.5,388.1,590,379.7z"/>
	<path class="st2" d="M566.6,307.5c4,0,9.1,1.7,12.9,4.4c23.9,17.2,38.9,37.8,45.6,63c1.9,6.9,3.9,14,5.9,20.7
		c3,10.1,6.1,20.5,8.5,30.8c0.3,1.4,0.6,2.7,0.8,4.1c8.7,9,14.8,20.4,17.6,33.5c5.9-12.3,7.4-24.6,4.9-37.3
		c-2.7-13.6-6.5-27.2-10.2-40.4c-1.5-5.4-3.1-11-4.5-16.5c-7.8-29.2-24.8-53.5-52-74.5c-10.6-8.2-20.8-11.4-32.1-10.2
		c-38.8,4.2-71.8,14.1-100.8,30.4c0.3,0.7,0.6,1.4,0.9,2c4.5-2,8.9-3.9,13.3-5.8c20.1-8.8,40.8-8.5,58.9,0.4c9.4-2,19-3.6,28.9-4.7
		C565.7,307.5,566.2,307.5,566.6,307.5z"/>
	<path class="st2" d="M719.9,394.5c-3-27.1-10.6-55.1-22.8-83c-3.9-8.8-10.2-17.1-17-22.1c-18.2-13.6-37.1-25.9-59.8-40.4
		c-25-15.9-47.1-21.9-69.6-19.1c-33.8,4.3-62.2,13.4-86.8,27.5c-7,4-13.9,8.3-20.7,12.6c3.2,7.2,6.4,14.4,9.5,21.6
		c4.5-2.9,8.9-5.8,13.3-8.7c25-16.7,54.6-26.8,90.6-30.8c2.1-0.2,4.2-0.4,6.3-0.4c16.6,0,31.7,7.4,48.6,18.4
		c21.6,14,38.8,25.7,54.2,36.7c4.1,2.9,7.9,8,10.1,13.3c14.1,35.1,22,66.9,24,97.1l0,0.5c0.9,14,1.9,28.5,1.2,42.6
		c-0.2,4.6-1.3,9.2-2.9,13.2c1.3-0.1,2.7-0.1,4-0.2c7.3-0.3,14.3,0.4,20.9,1.9c1.8-6.3,2.5-12.9,2.1-20
		C723.9,435.9,722.2,416,719.9,394.5z"/>
	<g>
		<path class="st2" d="M690.3,765c-19.5,9.3-40,16.4-62,21.2c3.6,11.6,4.3,23.9,1.8,35.9c20.1-3.9,38.6-9.5,56.1-16.9
			c56.1-23.7,105.5-56.2,146.9-96.3c16.8-16.3,32.5-34.2,47-53.3v-64.2C832.9,668.9,769.1,727.3,690.3,765z"/>
		<path class="st2" d="M959.1,426.5c-3.8-35.6-11.5-72.6-23.4-113.2c-19.2-65.4-46.3-119.9-82.7-166.8
			C766.7,35.8,612.8-20,469.7,7.8C395.9,22,327.3,51,259.9,96.2c-46.2,31-78.7,61.7-102.4,96.6C112.8,258.5,91.4,332.1,90,424.2
			l0,0.1l0,0.1c0.3,3,0.5,6.6,0.8,10.7c0,0.6,0.1,1.2,0.1,1.8c5.5-7.2,12.5-13.3,20.9-18.2c4.9-2.8,10-4.9,15.2-6.4
			c0.3-71.3,20.2-137.5,59.3-197.6c21.2-32.6,51.2-61.3,94.1-90.4c55.8-37.8,112-63.1,171.8-77.4c1.8-0.4,3.5-0.7,5-1c0,0,0,0,0,0
			c0.1,0,0.4,0.1,0.7,0.1c0.2,0,0.4,0.1,0.6,0.1c0.4,2.3,0.8,4.6,1.2,6.8c1.3,7.3,2.6,14.9,3.4,22.3c0,0.8-3,3.8-5.2,4.2
			c-22.2,4.3-44.9,8.4-66.8,12.4L379.1,94c-3.6,0.7-7.3,1.2-10.9,1.6c-20.2,2.5-33.9,12.6-40.7,30c-7.4,18.9-21.3,30.6-34,39.5
			c-43.2,30.5-72.4,60.3-92,93.6c-11.2,19.1-19.8,40.1-28.2,60.4l-2.1,5c-2.4,5.9-3.1,12-2.8,18.2c2-3.8,4.4-7.4,7.2-10.8
			c6.8-8.5,15.4-15.1,24.9-19.6c19-50.3,53.8-91.9,109-130.3c20.2-14.1,32.2-28.2,38.6-45.7c4-10.7,11.6-16.4,24.7-18.5
			c21.3-3.5,42.8-7.5,63.6-11.5c8.9-1.7,17.8-3.4,26.7-5c0.7-0.1,1.4-0.2,2.4-0.2c0.3,0,0.6,0,0.9-0.1l3.6,33l-6.3,0.9
			c-6.1,0.9-11.8,1.8-17.5,2.6c-25.8,3.8-49.8,15.3-73.2,35c-8.7,7.4-17.8,14.7-26.5,21.8c-12.1,9.8-24.5,19.9-36.5,30.3
			c-8.2,7.1-14.9,16.2-20.4,24.1c-4.6,6.6-8.9,13.6-13.1,20.4c-7,11.3-14.2,23-22.8,33.2c-1.8,2.1-3.4,4.2-4.8,6.4
			c2.7,0.8,5.4,1.7,8,2.8c4.8,2,9.5,4,14.2,6c1.2-1.7,2.3-3.5,3.5-5.3c1.4-3.2,2.8-6.5,4.3-9.7c8.2-18.6,16.6-37.7,25-56.6
			c12-27.2,35.3-42.7,64-42.7c0.3,0,0.7,0,1,0c0.9,0,1.9,0,2.8,0.1c9.9-8,19.4-15.7,28.7-23.2c15-12,33.9-19.2,57.8-22
			c2.9-0.3,5.8-0.8,8.9-1.3c1.1-0.2,2.2-0.3,3.4-0.5v30.4c-0.1,0-0.1,0.1-0.2,0.1c-0.3,0.2-0.6,0.4-0.8,0.5
			c-24.6,2.7-44.8,14.7-62.6,27.4c6.5,4.4,12.3,10.1,17.1,16.9c4.2-3,8.5-6.1,12.7-9.1c12.3-8.9,27.2-11.4,40.3-13.6
			c0.8-0.1,2.1,0.6,3.2,1.2c0.6,0.4,1.3,0.7,1.9,1l0.6,0.2l0.5-0.4c0.5-0.4,1-1,1.6-1.5c1.2-1.2,2.6-2.6,4-2.9
			c4.3-0.8,8.6-1.7,12.9-2.6c15.6-3.1,31.8-6.3,47.8-8.1c25.3-2.8,48.7,3.2,69.6,18c11.8,8.3,24,16.7,35.7,24.8
			c12.9,8.9,26.3,18.1,39.3,27.3c14.9,10.6,24,24.8,26.3,41.1c4,28.6,13.7,55.1,23,80.7c8.4,22.9,9.6,46.6,3.7,72.4
			c-1.7,7.6-3.9,15-6.6,22.1c7.1,4,13.4,9.2,18.8,15.6c1.1-2.5,2.2-5.1,3.2-7.7c11.4-29.5,14.5-57.6,9.4-83.5
			c-2.5-12.8-6.8-25.4-10.9-37.6c-2.5-7.3-5-14.8-7.1-22.2c-3.9-13.5-7-26.9-9.4-39.9c-4.6-25-16.7-44.8-36-58.7
			c-12.1-8.8-24.6-17.3-36.7-25.6c-12-8.2-24.4-16.7-36.3-25.3c-28.3-20.5-60.8-27.9-99.2-22.6c-11.2,1.5-22.5,3.7-33.3,5.9
			c-4.6,0.9-9.3,1.8-14,2.7l-6.1-28.2c5.7-1.2,11.3-2.4,17-3.6c13-2.7,26.4-5.6,39.5-8.3c30.9-6.3,62-1.1,92.5,15.5
			c32.3,17.6,64.3,36.8,95.1,57.1c26.5,17.4,43.7,37.7,52.7,61.9c0.5,1.5,1,3,1.5,4.7c0.2,0.6,0.4,1.2,0.6,1.9
			c-2.2,1.4-4.5,2.8-6.7,4.1c-6.6,4-12.8,7.9-19,12c-1.8,1.2-3.1,2.9-4.4,4.5c-0.6,0.7-1.2,1.5-1.8,2.1l-1.4,1.5l2.1,0.1
			c0.9,0.1,1.9,0.2,2.9,0.4c2.3,0.4,4.7,0.8,6.8,0c6.2-2.1,12.1-4.6,18.4-7.2c2.1-0.9,4.3-1.8,6.6-2.7c0.2,0.9,0.4,1.9,0.7,2.8
			c0.7,2.8,1.4,5.6,1.7,8.5c3.6,29.1,13.7,56.9,23.6,82.8c10,25.9,11.2,52.6,3.6,79.4c-7.5,26.5-20.2,51.4-38.4,75.3
			c-0.8,13.7-5.9,27.2-15.1,39.5c-8.4,11.2-16.9,22.4-25.3,33.5c15.4-14.2,30.8-28.7,45.6-43.6c17.2-17.4,31.9-39.7,45-68.2
			c19.9-43.3,21.5-86.3,5-127.8c-10.7-26.8-18.4-56-23.5-89.2c-0.3-1.9,0.7-5,1.7-5.6c5.8-3.2,11.7-6,18-9c1.8-0.9,3.7-1.8,5.6-2.7
			c0.8,4.2,1.5,8.4,2.2,12.4c1.7,10.1,3.4,19.6,6,29c4,14.3,9.1,28.5,14,42.3c1.4,4,2.8,8,4.2,12c1.1,3.1,2.9,6,5,7.8
			c10.5,9.4,13,21.1,13.4,35.8c0.8,25.2-2.3,44.1-10,61.2c-6.6,14.4-12.9,29.2-19.1,43.5c-4.5,10.5-9.3,21.4-14,32
			c-1.5,3.4-4.1,6.4-6.6,9.2c-26.5,29.2-53.4,58.6-78.9,86.6c4.5,7.4,7.6,15.6,9.2,24c0,0,0,0,0,0l15-16.4
			c23.6-25.8,48-52.4,71.7-78.8c5.5-6.1,9.9-12.9,12.9-19.8c2.3-5.2,4.5-10.4,6.8-15.6c10.9-25,22.2-50.8,31.5-76.8
			c8.7-24.2,5.9-49.5,1.6-73.3c-1.2-6.4-4.6-13.3-9-18c-7.8-8.4-13.1-17.7-15.5-27.4c-6.4-25.3-12-51.4-17-74.5
			c-0.2-0.9,1.7-3.7,3-4.1c3.4-1.1,7-1.8,10.6-2.5c2.2-0.4,4.4-0.9,6.6-1.4c3.3-0.8,3.9,0.8,4.7,3.6c0.2,0.6,0.4,1.3,0.6,1.9
			c13.4,32.1,23.9,66.8,31.4,103.2c5.6,27.3,7.7,55.9,6.7,84.6c-0.4,11.9,2.1,23.3,0,35v430H388.1c0-12.1,0-24-0.1-35.4
			c0-1.9,0-1.9,1.7-2.3c6.4-1.3,12.9-2.9,19.2-4.4c2.7-0.7,5.5-1.3,8.2-2c14.4-3.4,29-6.9,43.2-10.2c34.6-8.2,70.3-16.7,105.6-24.4
			c12.3-2.7,21.8-10.4,26.2-21.1c4.2-10.3,3.1-22-3-31.2c-3.5-5.4-6.6-11.1-9.8-17.1c-1-1.8-1.9-3.6-2.9-5.5l3.8-1.6
			c4.6-2,9.2-3.9,13.7-5.8c11.1-4.7,22.3-9.3,33.4-14c24.4-10.2,49.6-20.7,74.4-31.2c10.9-4.6,18.4-13.7,20.3-24.9
			c2-11.2-2-22.7-10.7-30.9c-2.2-2.1-4.5-4.1-6.7-6.1c-1.2-1.1-2.4-2.1-3.6-3.2c-4.6-4.2-9.2-8.4-13.9-12.6l-5.4-4.9
			c0.8-1.2,1.6-2.2,2.4-3.3l5.8-7.7c13.8-18.4,27.7-36.8,41.6-55.1c9-11.9,10.2-24.3,3.7-36.8c-6.4-12.3-17.1-18.3-32-17.7
			c-6.7,0.3-13.4,0.5-20,0.8c-11.7,0.5-23.7,1-35.6,1.4c-5.7,0.2-11.3,0.1-17.2,0.1c-1.8,0-3.5,0-5.3,0l-0.7-8.9
			c-0.6-8.5-1.3-17-1.9-25.5c-1.1-14.5-8.3-24.7-21-29.5c-12.5-4.8-24.3-2.2-34.9,7.6c-15.5,14.3-31.4,28.8-46.7,42.8
			c-4.2,3.9-8.4,7.7-12.7,11.6c10.2-42,20.4-84,30.6-126c3.3-13.6-0.3-25.5-10.6-34.2c-10.1-8.7-22.2-10.3-35-4.6
			c-11.8,5.2-23.6,10.3-36.7,15.9c-2.9,1.3-5.8,2.5-8.9,3.7c-0.5,0.2-1.1,0.4-1.6,0.7c-0.3-0.7-0.7-1.4-0.9-2l-10.1-22.7
			c-11.9-26.8-23.7-53.6-35.6-80.4c-6-13.7-16.1-20.7-30-20.9c-0.2,0-0.3,0-0.5,0c-13.7,0-24.2,7.1-30.2,20.7
			c-8.3,18.8-16.8,38-25,56.5c-4.7,10.6-9.4,21.3-14.1,31.9c-1.9,4.4-3.9,8.8-5.9,13.3c-0.6,1.2-1.1,2.5-1.7,3.7
			c-0.8-0.3-1.5-0.6-2.2-0.9c-4.4-1.9-8.8-3.8-13.1-5.7c-10.8-4.7-21.9-9.5-33-14.1c-2.9-1.2-7.5-2.7-12.7-2.8
			c-10-0.1-19.5,4.3-25.8,12.2c-6.4,7.9-8.7,18.2-6.3,28.1c6,25.4,12.3,51.1,18.3,76c2.7,11.2,5.4,22.4,8.2,33.6
			c1.4,5.9,2.8,11.8,4.2,17.6l0.1,0.5c-6.2-5.7-12.4-11.4-18.7-17.1c-13.7-12.6-28-25.6-42-38.4c-10.8-9.8-25.7-11.6-38.1-4.4
			c-10.2,5.9-15.8,15.2-16.6,27.7c-0.6,8.6-1.2,17-1.9,25.9c-0.2,2.9-0.4,5.8-0.7,8.8c-0.9,0-1.8,0-2.6,0L90,512.4
			c-18.4-0.7-37.4-1.3-56-2.1c-15.3-0.6-26.3,5.2-32.7,17.3c-6.6,12.7-5.4,25.6,3.5,37.3c5.8,7.6,11.7,15.4,17.3,22.9l6.2,8.3
			c6,8,12,16,18.2,24.2l8.1,10.8c-0.7,0.5-1.3,1.1-2,1.7c-2.2,2-4.4,4-6.6,5.9c-6.6,5.9-13.4,12.1-20,18.2
			c-9.5,8.8-13.7,20.4-11.7,31.8c2,11.3,9.9,20.6,21.6,25.6c20.3,8.6,41,17.2,61,25.6c8.8,3.7,17.6,7.4,26.5,11.1l36.6,15.3
			c-1,1.8-1.9,3.3-2.7,4.9c-1.3,2.4-2.7,4.9-4.1,7.2c-3.1,5.4-6.3,11-8.9,16.9c-3.8,8.4-3.4,18.6,0.9,27.2
			c4.7,9.4,13.6,16.1,25,18.6c36.2,8.2,73,16.9,108.6,25.2c22,5.2,44.7,10.5,67,15.7c2.5,0.6,2.7,0.8,2.7,3.4
			c-0.1,11.4-0.2,22.5-0.1,34.5H348l0,40h612V468C960.8,454.2,960.5,440.4,959.1,426.5z M825.5,257.4c-5.5,3.7-11.3,7-17.5,10.6
			c-1.8,1.1-3.7,2.2-5.6,3.3c-16.7-42.7-50-67.8-80.3-86.7c-32-20-59.1-35.3-85.1-48.3c-23.5-11.7-47.9-17.6-72.9-17.6
			c-14.3,0-28.9,1.9-43.6,5.8c-9,2.4-18.3,4.1-27.3,5.8c-3.7,0.7-7.4,1.4-11.1,2.1c0-2.7,0-5.4,0-8c-0.1-8.8-0.1-17.1,0.3-25.4
			c0.1-1.2,3.3-3.9,5.4-4.2c14.9-1.8,30.4-3.3,46-4.4c14.9-1.1,28.3-1.8,41.1-2c7.3-0.1,14.8,0.7,21.8,1.5c22,2.7,43.3,10,67.1,22.9
			c26.4,14.4,50.8,32.4,74.4,49.8c9.3,6.9,19,14,28.6,20.8c5.4,3.8,11.1,7.3,16.6,10.7c5.6,3.4,11.3,7,16.8,10.8
			c4.2,3,8,7.5,10.5,12.3c5.6,11,10.4,22.2,15.7,34.7C826.9,253.5,826.3,256.8,825.5,257.4z M848.9,244.5c-0.4-1-0.8-2-1.2-2.9
			c-1.1-2.7-2.1-5.3-3.3-7.8c-0.8-1.8-1.6-3.6-2.5-5.4c-3-6.6-6.1-13.4-9.6-19.9c-5.6-10.6-14-19-26.2-26.5
			c-18.7-11.4-37.8-24.8-60-42.3c-25.9-20.3-54.2-38.1-86.7-54.4C633.9,72.5,606.9,66,579,66c-4.4,0-8.9,0.2-13.3,0.5
			c-12.3,0.9-24.6,1.8-36.9,2.6c-12.2,0.9-24.3,1.7-36.5,2.6c-1.9,0.1-4.8,0.4-7.5,1.2c-2.9,0.9-5,0.8-6.4-0.1c-1.3-0.9-2-2.8-2-5.5
			c-0.1-5.8-0.1-11.7-0.1-17.9c0-2.5,0-5.1,0-7.7c84.1-15.6,166.4-2.4,244.5,39.3c63,33.7,110.9,84.1,146.4,154.1L848.9,244.5z
			 M196.6,665.5c10.1,6,20.5,12.1,30.5,17.9c5.2,3,10.4,6.1,15.6,9.1l24.8,14.6c25.7,15.1,52.3,30.7,78.4,46c2,1.2,2.5,2,2.5,4.2
			c-0.1,20.2-0.1,40.7-0.1,60.5c0,7.8,0,15.5,0,23.3c0,0.3,0,0.5,0,0.8l-163.5-38.4c0.2-0.3,0.3-0.6,0.5-1c1.6-3.1,3.2-6,4.8-8.8
			c2.4-4.4,4.9-8.8,7.4-13.2c2.4-4.3,4.8-8.6,7.2-12.9c3.4-6.2,4.2-12.3,2.4-17.7c-1.9-5.4-6.3-9.7-12.7-12.4
			c-30.1-12.6-60.2-25.2-90.3-37.8c-14.8-6.2-29.5-12.3-44.3-18.5c-0.2-0.1-0.5-0.2-0.8-0.3c0,0,0,0,0,0c3.4-3.1,6.8-6.2,10.2-9.3
			c5.1-4.7,10.5-9.5,15.7-14.3c13.8-12.7,15.5-31.3,4.3-46.3c-10.3-13.9-20.9-27.9-31.2-41.5c-4.6-6-9.1-12.1-13.7-18.2
			c-0.2-0.2-0.3-0.4-0.5-0.6c8.5,0.3,17.1,0.6,25.6,0.9c15.6,0.5,31.1,1.1,46.7,1.6c0.4,0,0.8,0,1.2,0c16.7,0,30.2-11.6,32.4-28.1
			c0.9-7.1,1.4-14.3,1.9-21.3c0.2-3.1,0.4-6.3,0.7-9.4c32,29.2,63.9,58.4,95.8,87.6c9.8,9,21.8,9.3,29.9,0.7
			c4.9-5.2,6.5-11.8,4.6-19.4c-6.1-25.3-12.3-50.6-18.4-75.9l-14.8-61.3c-3.1-12.7-6.2-25.4-9.2-38.1c0-0.2-0.1-0.4-0.1-0.6
			c3.4,1.4,6.6,2.7,9.7,4.1c4.3,1.8,8.6,3.7,12.9,5.6c6.3,2.7,12.8,5.5,19.2,8.3c17.3,7.3,35.4,0.1,43-17.1
			c9.4-21.2,19-42.8,28.2-63.7c5-11.3,10-22.7,15-34c0,0,0,0,0,0l4.4,10c4.9,11.1,9.8,22,14.6,32.8c3.1,6.9,6.1,13.8,9.1,20.7
			c5,11.3,10.1,23,15.2,34.4c7.5,16.8,25.9,24,42.8,16.8c9.3-3.9,18.7-8,27.8-11.9c4.7-2,9.4-4,14.1-6.1c-0.2,1.2-0.5,2.3-0.7,3.4
			c-13.9,57.2-27.7,114.5-41.6,171.7c-2.5,10.3,0.6,19,8.6,23.7c8.3,4.9,17.3,3.5,25.4-3.9l95.5-87.3c0.2-0.2,0.4-0.4,0.7-0.6
			c0.3,4.2,0.6,8,0.9,11.9c0.2,3,0.4,6,0.7,8.9c0.2,2.2,0.3,4.4,0.5,6.7c1.4,19.1,16,32,35.2,31.2c18.6-0.7,37.6-1.4,55.9-2
			c5.1-0.2,10.2-0.3,15.3-0.5c-1.3,1.7-2.5,3.4-3.7,5.1c-5.2,6.9-10.4,13.8-15.6,20.8c-8.5,11.3-17.3,22.9-25.9,34.4
			c-11.3,15.2-9.7,33.3,4.1,46.3c7.3,6.9,14.9,13.7,22.3,20.3l3.7,3.3c0,0,0,0,0.1,0.1c-1.7,0.8-3.5,1.6-5.2,2.3
			c-18.6,7.8-37.3,15.6-55.9,23.4c-24.8,10.4-49.6,20.8-74.4,31.2c-6.4,2.7-10.7,6.9-12.6,12.4c-1.9,5.4-1.1,11.4,2.3,17.4
			c6.6,11.8,13.1,23.6,19.7,35.4c0.1,0.2,0.3,0.5,0.4,0.7L388.1,842c0-0.2,0-0.4,0-0.6c0-8,0-16,0-24c0-19.7,0-40.2-0.1-60.2
			c0-2.4,0.5-3.3,2.7-4.6c45.8-26.8,92.2-54.1,137.1-80.5l8.4-5c2-1.2,4.1-2.4,5.9-4c7.4-6.5,8.6-18,2.9-26.2
			c-5.8-8.3-16.8-10.8-25.6-5.8c-13.3,7.6-26.8,15.5-39.8,23.2c-3.8,2.3-7.7,4.5-11.5,6.8c-15.1,8.9-30.3,17.8-45.4,26.7
			c-11.6,6.8-23.1,13.6-34.7,20.4l0-87.4c0-37.4,0-74.8,0-112.2c0-7.4-3.1-13.8-8.5-17.7c-5.1-3.6-11.6-4.5-18-2.3
			c-8.3,2.8-13.2,9.9-13.2,19.1c0,25.7,0,51.4,0,77l0,47.3c0,25.5,0,51.1,0,76.6c-0.4-0.2-0.7-0.4-1.1-0.6l-16.5-9.7
			c-36.8-21.6-74.8-43.8-112.1-65.8c-6.9-4-13.2-4.8-19.3-2.4c-7.3,2.9-11.6,8.6-12.3,16.4C186.2,654.6,189.5,661.3,196.6,665.5z"/>
	</g>
</g>
</svg>
