<?xml version="1.0" encoding="utf-8"?>
<!-- Generator: Adobe Illustrator 22.0.1, SVG Export Plug-In . SVG Version: 6.00 Build 0)  -->
<svg version="1.1" id="Layer_1" xmlns="http://www.w3.org/2000/svg" xmlns:xlink="http://www.w3.org/1999/xlink" x="0px" y="0px"
	 viewBox="0 0 960 960" style="enable-background:new 0 0 960 960;" xml:space="preserve">
<style type="text/css">
	.st0{fill:none;stroke:#4C4C56;stroke-width:40;stroke-miterlimit:10;}
	.st1{fill:none;stroke:#FFFFFF;stroke-width:40;stroke-miterlimit:10;}
	.st2{fill:#4C4C56;}
	.st3{fill:#4C4C56;stroke:#4C4C56;stroke-width:5;stroke-miterlimit:10;}
	.st4{fill:#4C4C56;stroke:#4C4C56;stroke-width:14;stroke-linejoin:round;stroke-miterlimit:10;}
	.st5{fill:#4C4C56;stroke:#4C4C56;stroke-width:14;stroke-miterlimit:10;}
	.st6{fill:#4C4C56;stroke:#4C4C56;stroke-width:7;stroke-miterlimit:10;}
	.st7{fill:none;stroke:#4C4C56;stroke-width:50;stroke-miterlimit:10;stroke-dasharray:40,40;}
	.st8{fill:#FFFFFF;}
	.st9{fill:none;stroke:#FFFFFF;stroke-width:80;stroke-miterlimit:10;}
	.st10{fill:none;stroke:#4C4C56;stroke-width:2;stroke-miterlimit:10;}
	.st11{fill:none;stroke:#4C4C56;stroke-width:80;stroke-linejoin:round;stroke-miterlimit:10;}
	.st12{fill:none;stroke:#FFFFFF;stroke-width:80;stroke-linejoin:round;stroke-miterlimit:10;}
	.st13{fill:none;stroke:#4C4C56;stroke-width:6;stroke-miterlimit:10;}
	.st14{fill:#4C4C56;stroke:#4C4C56;stroke-width:8;stroke-miterlimit:10;}
</style>
<polygon class="st2" points="920,920.9 499.4,920.9 499.4,556.3 427.6,515.4 427.4,515.8 250.9,415.4 251.1,415 168.1,367.8 
	168.1,640.2 40,705.7 40,40 920,40 920,522.7 704.2,434.6 704.2,135.8 371.8,324.2 371.8,438.2 411.8,460.9 411.8,347.5 
	664.2,204.4 664.2,418.3 551.9,372.4 551.9,882.1 704.2,882.1 704.2,521.4 664.2,505.1 664.2,842.1 591.9,842.1 591.9,431.9 
	664.2,461.5 664.2,461.9 704.2,478.2 704.2,477.8 920,565.9 920,566.3 960,582.7 960,556 960,539.1 960,0 0,0 0,726.2 0,730.4 
	0,770.8 255.8,640 256,640.2 286.6,624.6 286.6,842.1 208.1,842.1 208.1,709.3 168.1,729.8 168.1,882.1 326.6,882.1 326.6,559.2 
	208.1,619.8 208.1,436.6 371.8,529.7 371.8,920.9 40,920.9 40,795.3 0,815.7 0,960.9 411.8,960.9 411.8,552.5 459.4,579.6 
	459.4,960.9 960,960.9 960,625.9 920,609.5 "/>
</svg>
