<?xml version="1.0" encoding="utf-8"?>
<!-- Generator: Adobe Illustrator 22.0.1, SVG Export Plug-In . SVG Version: 6.00 Build 0)  -->
<svg version="1.1" id="Layer_1" xmlns="http://www.w3.org/2000/svg" xmlns:xlink="http://www.w3.org/1999/xlink" x="0px" y="0px"
	 viewBox="0 0 960 960" style="enable-background:new 0 0 960 960;" xml:space="preserve">
<style type="text/css">
	.st0{fill:#4C4C56;}
	.st1{fill:none;stroke:#4C4C56;stroke-width:40;stroke-miterlimit:10;}
	.st2{fill:#4C4C56;stroke:#4C4C56;stroke-width:14;stroke-miterlimit:10;}
	.st3{fill:#4C4C56;stroke:#4C4C56;stroke-width:7;stroke-miterlimit:10;}
	.st4{fill:none;stroke:#FFFFFF;stroke-width:40;stroke-miterlimit:10;}
	.st5{fill:#4C4C56;stroke:#4C4C56;stroke-width:5;stroke-miterlimit:10;}
	.st6{fill:#4C4C56;stroke:#4C4C56;stroke-width:14;stroke-linejoin:round;stroke-miterlimit:10;}
	.st7{fill:none;stroke:#4C4C56;stroke-width:50;stroke-miterlimit:10;stroke-dasharray:40,40;}
	.st8{fill:#FFFFFF;}
	.st9{fill:none;stroke:#FFFFFF;stroke-width:80;stroke-miterlimit:10;}
	.st10{fill:none;stroke:#4C4C56;stroke-width:2;stroke-miterlimit:10;}
	.st11{fill:none;stroke:#4C4C56;stroke-width:80;stroke-linejoin:round;stroke-miterlimit:10;}
	.st12{fill:none;stroke:#FFFFFF;stroke-width:80;stroke-linejoin:round;stroke-miterlimit:10;}
	.st13{fill:none;stroke:#4C4C56;stroke-width:6;stroke-miterlimit:10;}
	.st14{display:none;fill:#4C4C56;}
	.st15{fill:#4C4C56;stroke:#4C4C56;stroke-width:8;stroke-miterlimit:10;}
</style>
<path class="st0" d="M962.4,125.3c-3.4-9.7-10.6-14.2-22-13.8c-7.2,0.2-14.4,0.2-22,0.1c-2.6,0-5.2,0-7.8,0l0-0.6c0-1.9,0-3.6,0-5.3
	c0.3-27.4,0.5-54.7,0.8-82.1c0.1-9.4-2.4-16-7.3-19.5c-5-3.5-12.1-3.7-21.1-0.4c-21.6,7.8-38.3,18.2-51.3,31.7
	c-13.2,13.8-19.9,30.1-19.8,48.4c0.1,15.4,0,31.1,0,46.3c0,6.6,0,13.3,0,19.9v5.9h-83v-5.4c0-6.9,0-13.8-0.1-20.7
	c-0.1-15.2-0.2-30.8,0.2-46.2c0.6-31.5-13.7-54.7-42.7-69c-12-5.9-25.1-9.7-36.3-12.7c-7.4-1.9-13.7-1.2-18.2,2.3
	c-4.6,3.6-7.1,9.9-7.1,18.2c0,19.9,0,39.7,0,59.5l0,31.9l-584.7,0V40h440V0H40H0v40v480l40-40v-84.8c90.6,0,351.6,0.1,419.2-0.1
	c4.2,0,5.8,1.1,7.8,5.2c22.8,48.6,35.2,99.7,44.3,143.3c9.8,46.9,37,76.2,80.6,87c1.3,0.3,2.5,0.6,3.7,0.8c12.1,1.8,18.9,1,23.4-2.9
	c4.5-3.9,6.4-10.5,6.4-22.8l0-269.1h190.9v281.7l0,1.1c0,0.8,0,1.7,0,2.5c0,12.7,4.8,20.1,14.1,21.9c1.1,0.2,2.2,0.3,3.3,0.3
	c7.4,0,13.6-5.1,17.8-14.6c23.3-52.4,46.6-104.9,69.9-157.3l37.5-84.4c0.7-1.6,1.5-3.2,2.2-4.8l1.3-2.7V125.7L962.4,125.3z
	 M660.3,64.6l0-23.1c0.5,0.2,0.9,0.3,1.3,0.5c3,1.1,5.5,2.1,8,3.3c17.8,8.7,25.7,21.1,24.9,39c-0.7,15.4-0.5,31-0.4,46.1
	c0.1,6.9,0.1,14,0.1,20.9c0,1.7-0.1,3.3-0.2,5c0,0,0,0,0,0.1h-68l0.6-7.2l2,0c2.9,0,5.6,0,8.3,0c17.6,0,23.3-5.8,23.3-23.5
	C660.3,105.4,660.3,85.2,660.3,64.6z M603.9,225.6c15.9,0,21.8-6,21.9-22c0-2.9,0-5.7,0-9l0-2.7l64.8,0c44,0,88.1,0,132.1,0
	c17.9,0,24-6,24-23.9c0-7.4,0.1-15,0.2-22.3c0.2-17.3,0.5-35.2-0.5-52.7c-1.2-20.9,7.5-35.1,28.7-47c0.1,1.1,0.1,2.2,0.1,3.2
	c0,11.7,0,23.4,0,35.1c0,13.5,0,27,0,40.5c0,15.1,6.5,21.6,21.6,21.8c7.4,0.1,14.7,0.1,22.4,0c2.6,0,5.3,0,8,0l0,44.2
	c0,57.6,0,117.2-0.1,175.8c0,3.8-0.9,7.9-2.4,11.4c-21.4,48.8-43.3,98.5-64.5,146.4l-8.3,18.8l0-216.2c0-21.2-4.6-25.8-26-26.1
	l-200.2-0.6c0-0.3,0-0.6,0-0.9c0-2.6,0.1-5.2-0.1-7.9c-0.5-10.7-7-17.2-17.6-18.1c-1.5-0.1-3-0.1-4.4-0.1c-0.5,0-1,0-1.5,0
	c-114.8,0-431.9,0-562.1,0v-47.8C168.5,225.7,486.1,225.7,603.9,225.6z M40,308.9l26,0V339h40v-30.1l40,0V339h40v-30l40,0v30h40v-30
	l40,0v30h40v-30l40,0v30h40v-30l40,0V339h40v-29.9l84.5,0v284.8c-1.5-0.9-3.1-1.8-4.5-2.7c-5.5-3.3-10.2-6.1-14.4-9.6
	c-13.9-11.5-22.4-27.9-26.8-51.6c-10.1-55.1-27.3-107.3-51-155.1c-5.2-10.5-12.4-15-24-15c-0.1,0-0.1,0-0.2,0
	c-56,0.2-257.7,0.2-366.1,0.2c-25.9,0-46.9,0-60,0H40V308.9z M40,149.3h550.2v40.9H40V149.3z"/>
<path class="st0" d="M935.6,770.1c-72.2,0.1-232.2,0-360.7,0c-63.6,0-120.1-0.1-155.6-0.1h-2.9v-23.9l6.9,0c10.6,0,21.2,0,31.8,0
	c16.5,0,23.8-7.3,23.8-23.7c0-43.2,0-89.7,0-142.1c0-17-7-23.9-24.3-24l-7.9,0c-13.6,0-27.6-0.1-41.5,0.1c-0.7,0-1,0-1.2-0.1
	c-0.1-0.2-0.4-0.5-0.7-1.2c-26.9-56.3-71.8-85.4-133.7-86.6c-35.9-0.7-72.3-0.5-107.6-0.2c-5.7,0-11.3,0.1-17,0.1
	C64.1,468.9,0.4,532.9,0,614.2c-0.2,35.8-0.2,75.1,0,123.7c0.1,39.8,15.2,76.8,42.6,104.1c27.3,27.3,64.4,42.4,104.2,42.4
	c169,0.1,538.1,0.3,721.7,0.3h3.3c0,1.8,0,3.5,0,5.3c0,9.1-0.1,17.8,0.1,26.6c0.4,20.6,14.5,37.7,35,42.4c3.1,0.7,6.3,1.1,9.5,1.1
	c16.3,0,32.1-9.3,39.8-24.3c1.1-2.2,2.1-4.4,3.1-6.5c0.4-0.9,0.8-1.9,1.3-2.8c0.4-0.9,0.6-1.9,0.6-2.9V784.9c0-1.4-0.4-2.8-1.2-4
	C953.1,771.3,943.3,770.1,935.6,770.1z M910.9,889.7c0-1.6,0-3.1,0-4.7h11c0,0.2,0,0.5,0,0.7c0,3,0,6,0,9c0,6.9,0.1,14-0.2,20.9
	c-0.1,3.4-2.8,5-5.2,5.1c-1.6,0.1-3.2-0.5-4.3-1.5c-0.8-0.7-1.2-1.5-1.2-2.4C910.8,907.9,910.9,899.1,910.9,889.7z M415.3,706.5
	V595.9h23.9v110.6H415.3z M490,832v-22.4l40,0V832h40v-22.3l40,0V832h40v-22.3l40,0V832h40v-22.3l40,0V832h40v-22.3l40,0V832h40
	v-22.3l31.5,0V845c-56.1,0-156.2-0.1-253.1-0.1c-96.5-0.1-196.2-0.1-252-0.1v-35.1l33.6,0V832H490z M377,778.5
	c-0.1,21.9-0.1,44.5-0.1,66.7c-22.4,0-45.2,0.1-67.2,0.2c-55.5,0.2-112.9,0.4-169.3-0.5C85.6,844,40.2,798.1,39.3,742.7
	c-0.8-45.5-0.8-90.2,0-132.9c1-55.8,47.5-101.7,103.6-102.2c18.1-0.2,36.3-0.2,54.4-0.2c16.2,0,32.4,0,48.3,0.1
	c9.4,0,18.8,0,28.1,0.1c15.9,0,31,3.8,44.8,11.1c38.1,20.3,57.7,52,58.1,94.3C377.3,668.1,377.1,724.3,377,778.5z"/>
<path class="st0" d="M208.2,531.2c-0.1,0-0.3,0-0.5,0c-39,0.1-75.5,15.4-102.9,42.9c-27.3,27.5-42.2,64.1-42,103
	c0.2,38.8,15.5,75.2,42.9,102.4c27.3,27,63.5,41.9,102.1,41.9c0.2,0,0.4,0,0.7,0c38.8-0.2,75.2-15.4,102.4-42.8
	c27.2-27.4,42.1-63.9,42-102.7c-0.1-38.8-15.3-75.2-42.7-102.5C283.1,546.2,246.8,531.2,208.2,531.2z M208.1,782.3
	c-28.4,0-55.1-11-75-31c-20-20-31-46.7-31-75.2c0.1-58.2,47.5-105.6,105.8-105.7c0,0,0.1,0,0.1,0c58.2,0,105.7,47.3,105.9,105.5
	c0.1,28.5-10.8,55.3-30.8,75.4C263.2,771.2,236.6,782.3,208.1,782.3C208.1,782.3,208.1,782.3,208.1,782.3z"/>
<path class="st0" d="M286.7,713.1c13.9-21.2,14.3-68-15.9-97.9c-4.9,6.2-9.8,12.5-15.4,19.6c16.2,18.9,20.1,42.2,9.9,68.2
	C272.7,706.5,279.7,709.8,286.7,713.1z"/>
<path class="st0" d="M220.8,614.1c6.6,2.6,12.9,5.1,20,7.9c4-6.5,8.1-13.3,13.2-21.6c-9.7-3.8-18.4-7.3-28.1-11
	C224.1,598.5,222.5,606.3,220.8,614.1z"/>
</svg>
