<?xml version="1.0" encoding="utf-8"?>
<!-- Generator: Adobe Illustrator 22.0.1, SVG Export Plug-In . SVG Version: 6.00 Build 0)  -->
<svg version="1.1" id="Layer_1" xmlns="http://www.w3.org/2000/svg" xmlns:xlink="http://www.w3.org/1999/xlink" x="0px" y="0px"
	 viewBox="0 0 960 960" style="enable-background:new 0 0 960 960;" xml:space="preserve">
<style type="text/css">
	.st0{display:none;fill:#4C4C56;}
	.st1{fill:#4C4C56;}
</style>
<path class="st0" d="M30.5,231.1c3-3.2,6.2-6.3,9.5-9.4V41h377.8c21.3-15.9,45.1-29.2,71.5-40H0v272.5
	C8,258.3,18.2,244.1,30.5,231.1z"/>
<path class="st1" d="M841.6,1C838,1,810.9,1,757,1C640,1,498.6,7.5,408.8,102.4c-20,21.1-36.8,45-51.4,70
	c-4.5,7.6-8.7,15.4-12.9,23.3c-2.4,4.5-4.5,11.3-8.3,14.8c-7.5,6.7-23.9-1.2-32.4-3.3c-59.6-14.3-121.8-17-179.3,7.4
	c-49.5,21-89.8,58.9-102.2,112.6c-7.2,31.2-2.6,62.1,9.4,91.4c4,9.8,3.9,14.5-0.1,24.3c-2.6,6.3-5,12.7-7.4,19.1
	c-5.1,14.1-9.6,28.4-13.4,42.9c-15.6,60.8-15.6,123.4,18,178.4c14.8,24.2,34.4,42.7,53.5,63.1c16.1,17.1,20.1,43.4,48.9,37.3
	c30.4-6.5,60.4-2.4,91.1-5.9c29.6-3.4,58-13.8,83.1-29.9c47.3-30.3,77.8-77.9,101.1-127.7c5.4,11.4,7.8,23.7,12.1,35.6
	c4.8,13.2,10.6,25.9,17.5,38.1c26.9,47.6,67.8,81.9,119.5,99.6c13,4.4,26.3,7.3,39.7,10.5c13.1,3.1,23.6,12.7,36.5,15.4
	c13.8,2.9,22.1-5.4,30.9-14.5c9.3-9.7,21.5-14.8,33-21.4c49.3-28.5,88.4-69.4,105.2-124.7c18-59.2,8.8-121.9,4.7-182.4
	c-0.5-7.5-1.4-15.1,0.6-22.4s6.8-13.4,10.2-20.1c6.3-12.4,10.6-25.9,12.5-39.6c3.9-27.3-1.6-55.7-13.2-80.6
	c-22.7-48.9-70.3-83-120-100.7c-28.9-10.3-58.8-14.6-89.4-14.4c-11,0.1-37.3,5.3-45.3-3.7c-7-7.9-4.5-29.3-4.2-39.1
	c1-29.4,8.5-58.3,21.3-84.8c3-6.3,5.3-11,12-13.4C597.8,54.7,623,48,690,43s230-2,230-2v880H40V759.9c-13.7-14.3-27.7-29.3-40-47.5
	V961h960V1H841.6z M542.4,282.9c3.9,0.6,6.4-1.5,6.6,3.7c-8.2,6.9-21.1,22.8-32.2,23c-11.6,0.2-24.9-4.5-33.9-11.1
	c8.8-9.2,16.8-19.5,30.3-21.4c7-1,13.4,0.7,19.9,3C536.3,281.2,538.9,282.3,542.4,282.9z M687.5,373.2c-5.4,4.3-11.1,10.2-18.4,8
	c-9-2.7-17.3-12.1-24.2-17.9c9.8-7.6,19.5-15.2,29.2-22.8c6,4.7,19.9,11.7,23.1,18.6C700,365.4,691.9,369.7,687.5,373.2z
	 M715.1,375.6c9.7,0.2,23.4,17.7,27.4,25.7c-7.4,6.4-18.2,20.3-29.2,18.6c-6.4-1-11.3-6.9-15.7-11.2c-2.8-2.7-10.7-8-11.1-12.2
	C685.7,390,709.1,375.5,715.1,375.6z M657.4,397.2c1.3,5.6-21.7,22-26,25.9c-6.9-4.2-28.6-12-27.2-22.1c1-6.8,17.1-21.3,23.7-23
	c6.4-1.6,10.4,3.1,15.1,6.9C646.1,387.4,656.5,393.6,657.4,397.2z M616.7,441.1c-2.1,4.2-7.8,8-10.7,11.9c-2,2.6-5.4,9.2-8.6,10.4
	c-7.3,2.7-26.2-15.2-32.2-19.2c6.9-8.5,17.1-29.6,30-24.9C602.4,421.9,621.2,432.3,616.7,441.1z M558.6,427
	c-0.9,1.1-6.4,9.4-7.7,9.7c-0.9,0.2-4.6-2.7-5.5-3.1c-8.9-4.7-18.2-8.5-20-19.7c-1.2-7.7,5.7-20.3,13.9-21.3
	c10.9-1.3,26,10.2,35.1,14.8C569.1,413.8,563.9,420.4,558.6,427z M538.8,452.7c-0.2,1.3-2.4,8.7-3.7,9.8c-2.5,2.3-3.9,0.8-7.6-0.6
	c1.7-5.5,3.4-11,5.1-16.4C538.6,448.1,539.6,446.7,538.8,452.7z M528.3,507.7c10.2,6.9,20.5,13.9,30.7,20.8c-1,1.2-2,2.4-3,3.6
	c-8.2-0.7-23.6,1.1-30.8-3.1C517.6,524.6,525.6,513.7,528.3,507.7z M535.9,492.6c4.1-7.6,11.5-29.4,20.1-31.8
	c8-2.2,25.2,11,27.9,18.1c3.2,8.5-9.2,25.9-15.7,30.9C559,516.9,543.2,498.3,535.9,492.6z M589.5,506.4c3.6-6.1,7.4-12,11-18.1
	c8.3,7.8,20.7,15.9,26.8,25.4c7.4,11.4-10.6,12.1-18.3,13.6c-6.7,1.3-27.3,8-27.9-3.9C580.9,518.2,587,510.7,589.5,506.4z
	 M613.1,478.3c-4.3-10.3,13.7-25.2,19.6-32.5c7.1,6.3,27.4,18.5,27.9,28.4c0.4,7.1-13.7,23.7-20.3,25
	C632.2,500.9,616.1,485.3,613.1,478.3z M661.4,501.4c3.1-3.5,5.5-9.5,9.3-12.1c6.9-4.8,13.2,8.8,17.6,13.6
	c-11.1,7.8-23.1,14-36.8,12.6C654.4,509.8,657.1,506.2,661.4,501.4z M673.8,458.8c-9.7-0.6-20.7-22-26.2-29.1
	c6.4-6.4,16.8-22.5,26.9-20.4c7.8,1.6,24.2,16.7,24.2,25C698.6,441.7,681.4,459.3,673.8,458.8z M690.4,468.8
	c3.6-6.5,17-22.9,24.6-18.5c5,2.9,10,12.5,13.1,17.3c2.7,4.1,4.9,7.4,2.4,12.2c-3.9,7.4-19.1,15-26.9,17.6
	C695.9,490.2,684.1,480.1,690.4,468.8z M724.4,436.7c9.7-7.7,19.5-15.4,29.2-23.1c4.3,7.1,15.9,19.7,15.4,28.3
	c-0.5,8.9-14.2,17.9-20,23.7C740.9,455.8,732.8,446.1,724.4,436.7z M753.7,388.9c-5.1-2.3-8.4-9.4-12-13.4
	c-3.9-4.4-8.7-7.9-13.2-11.6c8.1-5.1,23.3-19.2,33.1-18.5c10,0.7,19.7,20.1,25.3,27.4C778.9,377.4,763.4,393.2,753.7,388.9z
	 M735.3,341.2c-18.2,14.1-31.2,4.4-44.1-10.9c10.1-7.7,21.1-13.7,32.2-19.7c4.8,3,8.4,6.4,12.6,10.1c2.3,2,8.1,4.8,9.3,7.8
	C747.4,333.9,739.4,338,735.3,341.2z M690.3,311.3c-4.4,2.8-11.1,8.8-16.4,9.1c-5.5,0.3-30-11.8-31-17.3c-1.1-6,26.2-19.5,31.4-20.6
	c9.4-2.1,26.3,12.1,34.6,17C702.7,303.4,696.5,307.4,690.3,311.3z M639.8,284.1c-4.6,2.8-10.6,8.1-15.9,9.1
	c-5.3,1-11.8-2.9-16.7-4.8c-7.2-2.8-14.4-5.7-21.6-8.6c11.3-6.7,22.1-17.3,35.2-20.3c14.1-3.2,26.4,7.1,38.4,12.8
	C652.6,276.2,646.2,280.1,639.8,284.1z M626,316.4c11.9,0.6,22.9,8.9,32.9,14.6c-8,6.1-25.4,24.8-35.3,22.9
	c-6.7-1.3-14.4-7.4-20.4-10.7c-5.1-2.9-10.3-4.4-5.6-10.5c3-3.8,9.9-9.6,14.1-12.3C616.1,317.6,620.8,316.1,626,316.4z M613.4,365.5
	c-5.1,5.5-10.2,11-15.2,16.5c-3.2,3.6-7.2,10.2-12.1,11.4c-5.3,1.2-10.4-3.5-14.7-5.9c-6.9-3.8-14.1-7-21.2-10.6
	c6.8-7.7,17.5-23.4,27.6-26C587.3,348.5,604.6,361.2,613.4,365.5z M556.9,346.4c-2.3,7.1-16.1,20.8-23.9,21.2
	c-7.7,0.4-21.2-2.5-26.8-8.1c-10.8-10.9,12.4-24.4,19.5-30.7C533.4,331.3,560.7,334.5,556.9,346.4z M479.4,492.9
	c-15.9-4.4-20.6-9.2-19.9-25.6c0.2-3.7-1.4-13.9,1.8-17c3.6-3.6,9.4,0.7,12.7,2.3c9.7,4.7,22.9,4.7,20.1,18.7
	C494.1,482.8,495.4,497.4,479.4,492.9z M489.8,393.7c-10.8-4.5-25.7-6.2-34-15.3c-7.5-8.2-6.9-21.2-9.7-31.3
	C469.2,347.9,486.5,372.9,489.8,393.7z M444.2,280.2c10.2-14.7,26.5-12.4,41.8-8.9c-4.9,7.8-14.3,16.3-23.2,19.8
	C454.6,294.3,449.2,285.7,444.2,280.2z M458.1,504c4.2-2.5,10.2,0.2,14.2,1.5c2.6,0.9,10.8,2.4,12.3,5.1c3.1,6-10.6,16.1-14.3,20.3
	c-6.8,7.8-13.1,9.3-22.2,3.7C450,527.2,451.2,508.2,458.1,504z M492.4,439.9c-4.9,3.5-18.9-5.1-23.4-6.8c-7.2-2.7-8.3-4.1-9.5-11.9
	c-1.2-7.7-1.1-15.5-1.8-23.2c10.4,4,32.1,7.1,35.3,19.3C494.2,421.4,496.9,436.7,492.4,439.9z M485.4,325.7
	c-5.1-4.7-5.9-7.5,1.6-7.7c5.8-0.2,14.4,2.1,18.3,6c-1.6,1.7-6.5,9.5-9.3,9.9C493,334.3,487.6,327.8,485.4,325.7z M490.4,255.2
	c1.2-6.6,19.8-15.1,31.3-14C518.5,254.4,505.9,259.8,490.4,255.2z M385,216.3c18.8-30.3,37.6-61.3,62.5-87.1
	c12-12.4,25.7-22.9,40-32.3c12.4-8.1,25.3-18.3,40.3-19.4c-7.1,18.9-13.5,37.3-16.2,57.4c-1.4,10.2-2,20.6-1.6,30.9
	c0.4,10.6,3.1,20.8,3.9,31.2c1.1,15.6-20.2,16.5-31.4,21c-15.8,6.3-30.8,14.4-45,23.6c-6,3.9-13.7,12-20.6,13.2
	c-7.1,1.3-14.4-5.1-20-8.5c-4.8-3-16.2-7.6-18.8-12.8C375.3,228,382.2,220.8,385,216.3z M325.7,373.4c7.7,4.5,7.1,16.7,7.6,24.4
	c-17.2-6.1-32.8-12.3-44.9-26.1C298.3,370,316,367.8,325.7,373.4z M278.8,341.2c-1.9-4.4-8.9-17.6-6.5-22.4
	c2.7-5.3,12.1-2.6,16.7-2.3c6.9-0.2,16.5-2,21.8,3.7c6.9,7.5,8.4,23.5,11,32.8C305.9,353.5,286.7,359.2,278.8,341.2z M334.3,319.3
	c5.5-2.5,14.3,2.1,19.9,2.7c4.8,0.5,9.3-0.4,13.2,3.2c7.5,7,9.5,26,12.3,35.5c-11.2-1.5-34.8,0.2-40.9-10.9
	C335.6,344,326.6,322.8,334.3,319.3z M350.2,372c9.1,2.8,23,3.1,30.9,8.6c6.3,4.4,7.8,15,7.2,22.2c-0.6,7.6-4,9.2-11,8.2
	c-6.4-0.9-15.4-0.8-21.4-3.1c-7.1-2.8-8.3-9.2-9.2-16.2C345.8,383.5,346.8,379.4,350.2,372z M386.5,326.3c7.3,2.1,14.7,4.1,22,6.2
	c5.3,1.5,13.1,2.5,17.3,6.2c4,3.6,13.6,29.7,9.4,33.7c-4.6,4.4-31.4-4.2-35.5-7.7c-4.1-3.6-4.9-10.5-6.5-15.7
	C390.9,341.5,388.7,333.9,386.5,326.3z M441.3,400.5c1.1,4.3,4.3,20.6-0.6,23c-3.3,1.6-10.8-2.2-13.8-2.9
	c-5.3-1.3-12.3-0.4-17.1-3.2c-5.5-3.3-5.2-8.3-5.5-13.9c-0.4-7.9-3.1-14.9-4.9-22.6C412.1,384.3,437.4,385.3,441.3,400.5z
	 M419.8,319c-10.7-2.3-27.8-2.9-37.1-8.7c-8.3-5.2-12.3-24.2-16-33.1C389.7,268.7,420.6,295.8,419.8,319z M343.7,271
	c9,5,14.5,26.3,18.6,35.4c-8.9-1.2-17.6-3.1-26.6-3.8c-6.2-0.5-11.1-0.1-15.2-5.6c-2.8-3.8-3.6-9-5.4-13.4
	c-2.8-6.6-6.7-12.8-10-19.1C316.1,266.1,333.9,265.5,343.7,271z M294.4,236.7c8.3,2.6,16.6,5.2,24.9,7.8c1.6,0.5,11.5,2.6,12.4,3.9
	c3.4,4.9-5.4,3.9-7.3,3.7C317.9,251.4,282.5,250.8,294.4,236.7z M296.8,282.3c1.8,3.5,7.5,11.6,6.2,15.7c-2.1,6.4-30.9,2.9-37.1,2.9
	c-3-5.5-20.1-28.8-15.7-35.1c3.8-5.5,29.8-2.7,34.8-0.2C291.2,268.8,293.9,276.5,296.8,282.3z M267.3,353.9c-11.2,1.6-30,9-38.5-1.5
	c-4.7-5.8-15.8-26.7-6.7-32.2c3.5-2.1,12.2-1.8,16.5-2.4c4.2-0.6,9.5-1.8,13.3,0.6C261.8,324.6,263.6,343.9,267.3,353.9z M233.4,232
	c4.9-4.6,18-0.3,24.2,0.7c11.5,1.8,13.8,4,18.8,14c-1.4,0.4-15.6,4.9-15.9,1.7c-8,0.6-16.4,2.7-23.3-2.5
	C232.8,242.6,228.5,236.5,233.4,232z M230.9,269.3c7.8,6.6,12,22.5,16.5,31.5c-8.7,1.2-30.5,8.1-37.3,2.3c-3.5-3-6.2-11.7-8.2-15.8
	c-2.5-5.2-5.1-10.5-7.6-15.7C203.2,270.2,223.4,262.9,230.9,269.3z M208.4,349.8c-7-0.8-14-1.3-20.9-2.7c-5.1-1.1-12.8-5.4-15.5-0.4
	c-3.3-2.4-6.6-4.7-9.9-7.1c9.2-7.2,20.9-13.1,32.9-14.1C206.1,324.6,206.2,341.6,208.4,349.8z M179.8,238.7
	c3.9-4.1,17.7-5.5,23.1-5.4c10.5,0.3,12.9,8.1,17.7,15.9c-7.7,4.6-25.6,10.2-34.2,5.1C181.5,251.6,175.3,243.5,179.8,238.7z
	 M191.8,309.4c-11.6,3.7-30.7,15.7-40,4.1c-3-3.8-12.6-24.2-9.7-27.8c1.8-2.2,11.4-2.7,14.1-3.5c5.2-1.4,11-4,16.4-4.3
	C182.7,277.5,193.6,300.9,191.8,309.4z M125.9,257.9c2.1-4.1,10.6-5.6,14.3-7.1c6.3-2.7,12.5-5.7,18.8-8.5
	c2.7,4.5,9.5,12.5,5.7,17.8c-3.9,5.4-16.9,7-22.6,9.5c-5.7,2.5-8.1,4.5-13-0.2C126.3,266.6,124,261.7,125.9,257.9z M128.6,299.8
	c2.8,4,12,20.2,10.1,26.1c-1.8,5.5-18.5,11.8-22.9,13.4C101,344.4,97.5,322.4,93,312C101.5,306.9,121,288.9,128.6,299.8z M97.3,277
	c4.1-3.6,10.6-11.1,15.9-5.9c7.3,7.2-2.4,11.9-7.4,15.1c-5.1,3.3-17.4,13.9-22.1,10.2C86.5,287.6,90.1,283.4,97.3,277z M63.4,338.6
	c2-3.5,10.2-15,15.6-14c2.4,0.4,7.7,10.3,7.2,12.6c-0.6,2.3-5.4,5.4-7.1,7.2c-7.2,7.7-11.6,14.9-15.4,24.5
	C58.3,359.1,57.8,348.4,63.4,338.6z M412.5,529.6c-16.1,37.6-32,76-52.1,111.7c-18.4,32.6-42.8,63.4-76.7,81
	c-15.6,8.1-32.6,13.3-49.9,16c-6.2,1-53.2,5.8-53.6,1.2c-12.9,0.9-25.9,1.8-38.8,2.5c-13.8,0.8-17.1-2.6-26.1-12.8
	c-14.1-15.9-29.4-31.1-42.3-48C48.2,648.7,36.1,610,36.8,569.3c0.7-42.5,15.9-80.9,31.2-119.9c7.8-20.1,16.9-40,23.7-60.5
	c2.3-7,2.6-15.1,11.1-16.6c8.2-1.5,18.7,1.7,27,2.3c42,2.8,81.9,8.5,121.7,22.9c36.9,13.3,72.3,31.5,104.4,54.1
	c15.6,11,30.4,23.1,44.4,36.1c6,5.6,15.3,11.8,17.9,19.9C420.6,515.3,415.5,522.7,412.5,529.6z M418.9,461.7
	c-8.9-9.2-16.9-15.2-11-28.6c9,2,28.6,2.5,34.4,10.5c3.7,5.1,4.5,27.8,0.7,32.9C436.7,484.9,423.5,466.4,418.9,461.7z M738,707.1
	c-21.5,25.7-49.8,39.2-76.7,58c-6.5,4.6-15.9,14.2-24,14.7c-7.6,0.5-17-6.7-24-9.3c-16.3-6.1-34-7.5-50.5-13.7
	c-32.7-12.3-60.8-33.7-81-62.2c-10.7-15.1-19.1-31.6-25.8-48.8c-3.5-9-6.6-18.1-9.3-27.4c-2.1-7.1-8.8-22.1-5.4-29.3
	c1.2-2.7,3.7-2.9,7.4-4.6c2.4-1.1,4.6-2.9,7.3-3c7-0.2,10,8.6,17.6,7.4c14.4-2.3-5.1-9.8-5.8-14c-0.6-3.6,2.6-4.5,6.5-6.4
	c14.7-7.4,25.5-2.8,41.3-0.6c20.2,2.8,40.7,3.6,61,2.3c74.2-4.5,142.2-31.4,197.8-80.5C781.1,563.2,788.8,646.5,738,707.1z
	 M797.8,388.6c-0.5,1.3-0.9,2.5-1.4,3.8c-0.2,4-3.5,9.5-4.9,13.3s-2.8,7.6-4.2,11.4c-1.9,5.2-1.2,9.8-7.4,8.8c-3-4.6-6-9.1-9-13.7
	c-0.8-1.2-1.6-2.4-2.3-3.5c-3.6-2.8-3.2-4.8,1.2-6c3.7-4.8,15-11.4,20.8-13.9C792.9,385.8,795.3,385.8,797.8,388.6z M786.1,330.8
	c10.4-0.4,10.8,16.4,6.8,22.3C790.3,350.2,771.7,331.4,786.1,330.8z M768.5,295.7c3.5,2.8,13.3,13.9,12.3,18.6
	c-1.5,6.6-13.5,10.2-18.4,7c-3.6-2.4-6.3-7-9.9-9.7c-4.2-3.2-8.8-5.9-13-9.1C747.3,299.2,760.7,289.6,768.5,295.7z M730,264.3
	c6.8,3.9,13.6,8,20.4,12c-2.3,8.2-7.2,9.2-15.4,11.1c-10.3,2.4-14.6,1.3-23.8-3.8c-3.5-2-14.1-5.9-12-11.2
	c1.4-3.6,10.7-6.2,13.8-7.7C720.6,261.2,722.5,259.9,730,264.3z M703.7,249.9c-14.5,14.5-40.2,13.1-58.7-3.8
	C660.4,234,688.3,236.2,703.7,249.9z M634.8,228.4c-5.3,13.2-29.1,11.9-41-2.5C608.7,226.9,621.4,227.6,634.8,228.4z M590.8,245.4
	c5.5,1.3,10.5,0,10,6.5c-3.2,2.1-12.7,10.6-16.6,8.7c-3.3-1.7-6.3-14.9-7.7-18.6C581.2,243.1,586,244.3,590.8,245.4z M559.1,299.6
	c3.8-2.8,8-7.5,13-7.7c5.1-0.1,11.6,3.7,16.3,5.5c6.4,2.4,12.9,5,19.3,7.4c-6.3,4.8-12.9,8.8-18.7,14.3c-4.6,4.4-7.5,8.7-14.4,9
	c-6.5,0.3-11.7-3.9-17.4-6.1c-5.7-2.3-16.4-1.4-17-8C546.5,309.1,552.8,304.3,559.1,299.6z"/>
</svg>
