<?xml version="1.0" encoding="utf-8"?>
<!-- Generator: Adobe Illustrator 22.0.1, SVG Export Plug-In . SVG Version: 6.00 Build 0)  -->
<svg version="1.1" xmlns="http://www.w3.org/2000/svg" xmlns:xlink="http://www.w3.org/1999/xlink" x="0px" y="0px"
	 viewBox="0 0 544.3 544.3" style="enable-background:new 0 0 544.3 544.3;" xml:space="preserve">
<style type="text/css">
	.st0{display:none;}
	.st1{display:inline;}
	.st2{display:inline;fill:#6A6A69;stroke:#4B4B4A;stroke-miterlimit:10;}
	.st3{fill:#6A6A69;}
	.st4{fill:#4B4B4A;}
	.st5{display:inline;fill:#6A6A69;}
	.st6{display:inline;fill:#343433;}
	.st7{fill:#FFF2DA;}
	.st8{fill:#EED8B7;}
	.st9{opacity:0.72;fill:#EED8B7;}
	.st10{opacity:0.48;fill:#EED8B7;}
	.st11{fill:#343433;}
	.st12{fill:none;stroke:#6A6A69;stroke-width:11.3386;stroke-miterlimit:10;}
	.st13{fill:none;stroke:#6A6A69;stroke-width:17.0079;stroke-miterlimit:10;}
	.st14{fill:#5F6669;}
	.st15{fill:#FFFFFF;}
</style>
<g id="Layer_2" class="st0">
</g>
<g id="Layer_1">
	<path class="st15" d="M544.3,0v544.3H0V204.1l17,17v306.1h510.2V17H17v149.5l85,85v54.5h68c18.8,0,34-15.1,34-33.6V135.7
		c0-18.6-15.3-33.6-34-33.6h-68v68H85V85h85c28.1,0,51,22.7,51,50.7v136.8c0,27.9-22.9,50.7-51,50.7H85v-64.5l-85-85V0H544.3z
		 M433.7,453.5h-42.5v-96.4h42.5c13.8,0,25.5,11.7,25.5,25.5V428C459.2,441.1,446.8,453.5,433.7,453.5z M408.2,436.5h25.5
		c3.8,0,8.5-4.7,8.5-8.5v-45.4c0-5-4.5-8.5-8.5-8.5h-25.5V436.5z M235.3,400.2 M459.2,323.2h-17V108.4l-85,85l-85-85v214.7h-17V85
		l17.7,0l84.4,84.4L441.5,85h17.7V323.2z M263.6,453.5h-17c-13.1,0-25.5-12.4-25.5-25.5v-45.4c0-13.1,12.4-25.5,25.5-25.5h17
		c6.3,0,12.7,2.8,17.7,7.8c5,5,7.8,11.4,7.8,17.7V428C289.1,441.4,277,453.5,263.6,453.5z M246.6,374.2c-3.8,0-8.5,4.7-8.5,8.5V428
		c0,3.8,4.7,8.5,8.5,8.5h17c3.9,0,8.5-4.6,8.5-8.5v-45.4c0-1.8-1.1-3.9-2.8-5.7c-1.7-1.7-3.9-2.8-5.7-2.8H246.6z M348.7,453.5h-17
		c-13.1,0-25.5-12.4-25.5-25.5v-45.4c0-13.1,12.4-25.5,25.5-25.5h17c6.3,0,12.7,2.8,17.7,7.8c5,5,7.8,11.4,7.8,17.7V428
		C374.2,441.4,362,453.5,348.7,453.5z M331.7,374.2c-3.8,0-8.5,4.7-8.5,8.5V428c0,3.8,4.7,8.5,8.5,8.5h17c3.9,0,8.5-4.6,8.5-8.5
		v-45.4c0-1.8-1.1-3.9-2.8-5.7c-1.7-1.7-3.9-2.8-5.7-2.8H331.7z M306.1,400.2 M394,397.3 M394,400.2 M204.1,357.2h-17v79.4h-7.8
		l-26.2-26.2v-53.2h-17v60.2l10.7,10.7l-8.5,8.5h-10L102,410.3v-53.2H85v60.2l36.2,36.2h24.1l13.5-13.5l13.5,13.5h31.9V357.2z"/>
</g>
</svg>
