<?xml version="1.0" encoding="utf-8"?>
<!-- Generator: Adobe Illustrator 22.0.1, SVG Export Plug-In . SVG Version: 6.00 Build 0)  -->
<svg version="1.1" xmlns="http://www.w3.org/2000/svg" xmlns:xlink="http://www.w3.org/1999/xlink" x="0px" y="0px"
	 viewBox="0 0 510.2 510.2" style="enable-background:new 0 0 510.2 510.2;" xml:space="preserve">
<style type="text/css">
	.st0{fill:#6A6A69;stroke:#4B4B4A;stroke-miterlimit:10;}
	.st1{fill:#6A6A69;}
	.st2{fill:#4B4B4A;}
	.st3{fill:#343433;}
	.st4{fill:#EED8B7;}
	.st5{opacity:0.72;fill:#EED8B7;}
	.st6{opacity:0.48;fill:#EED8B7;}
	.st7{fill:none;stroke:#6A6A69;stroke-width:11.3386;stroke-miterlimit:10;}
	.st8{fill:none;stroke:#6A6A69;stroke-width:17.0079;stroke-miterlimit:10;}
	.st9{fill:#FFF2DA;}
</style>
<g id="Layer_2">
</g>
<g id="Layer_1">
	<g>
		<path class="st9" d="M246.6,357.2h-17c-3.8,0-8.5,4.7-8.5,8.5V411c0,3.8,4.7,8.5,8.5,8.5h17c3.9,0,8.5-4.6,8.5-8.5v-45.4
			c0-1.8-1.1-3.9-2.8-5.7C250.6,358.2,248.4,357.2,246.6,357.2z"/>
		<path class="st9" d="M0,0v149.5l85,85v54.5h68c18.8,0,34-15.1,34-33.6V118.7c0-18.6-15.3-33.6-34-33.6H85v68H68V68h85
			c28.1,0,51,22.7,51,50.7v136.8c0,27.9-22.9,50.7-51,50.7H68v-64.5l-68-68v336.6h510.2V0H0z M187.1,436.5h-31.9L141.7,423
			l-13.5,13.5h-24.1L68,400.4v-60.2h17v53.2l26.2,26.2h10l8.5-8.5l-10.7-10.7v-60.2h17v53.2l26.2,26.2h7.8v-79.4h17V436.5z
			 M272.1,411c0,13.4-12.2,25.5-25.5,25.5h-17c-13.1,0-25.5-12.4-25.5-25.5v-45.4c0-13.1,12.4-25.5,25.5-25.5h17
			c6.3,0,12.7,2.8,17.7,7.8c5,5,7.8,11.4,7.8,17.7V411z M357.2,411c0,13.4-12.2,25.5-25.5,25.5h-17c-13.1,0-25.5-12.4-25.5-25.5
			v-45.4c0-13.1,12.4-25.5,25.5-25.5h17c6.3,0,12.7,2.8,17.7,7.8c5,5,7.8,11.4,7.8,17.7V411z M442.2,411c0,13.1-12.4,25.5-25.5,25.5
			h-42.5v-96.4h42.5c13.8,0,25.5,11.7,25.5,25.5V411z M442.2,306.1h-17V91.4l-85,85l-85-85v214.7h-17V68l17.7,0l84.4,84.4L424.5,68
			h17.7V306.1z"/>
		<path class="st9" d="M331.7,357.2h-17c-3.8,0-8.5,4.7-8.5,8.5V411c0,3.8,4.7,8.5,8.5,8.5h17c3.9,0,8.5-4.6,8.5-8.5v-45.4
			c0-1.8-1.1-3.9-2.8-5.7C335.6,358.2,333.4,357.2,331.7,357.2z"/>
		<path class="st9" d="M416.7,357.2h-25.5v62.4h25.5c3.8,0,8.5-4.7,8.5-8.5v-45.4C425.2,360.7,420.7,357.2,416.7,357.2z"/>
	</g>
</g>
</svg>
