<?xml version="1.0" encoding="utf-8"?>
<!-- Generator: Adobe Illustrator 22.0.1, SVG Export Plug-In . SVG Version: 6.00 Build 0)  -->
<svg version="1.1" id="Layer_1" xmlns="http://www.w3.org/2000/svg" xmlns:xlink="http://www.w3.org/1999/xlink" x="0px" y="0px"
	 viewBox="0 0 136.1 136.1" style="enable-background:new 0 0 136.1 136.1;" xml:space="preserve">
<style type="text/css">
	.st0{fill:#FFFFFF;}
	.st1{fill:#5F6669;}
</style>
<path class="st1" d="M103.6,96c0-2.2,1.6-3,3-3h3c0.7,0,1.4,0.4,2,1c0.6,0.6,1,1.4,1,2h3c0-1.5-0.7-3-1.9-4.2
	c-1.2-1.2-2.7-1.9-4.2-1.9h-3c-3,0-6,2.1-6,6s3,6,6,6h3c1.4,0,3,1.6,3,3v1v0.6c0,1.4-1.6,3-3,3h-3c-1.4,0-3-1.6-3-3h-3
	c0,3.1,2.9,6,6,6h3c3.1,0,6-2.9,6-6v-1.5c0-3.1-2.9-6-6-6h-3C105.2,99,103.6,98.2,103.6,96 M97.1,111.6l-6.5-6.5h0.1
	c3.1,0,6-2.9,6-6v-3c0-1.5-0.7-3-1.9-4.2c-1.2-1.2-2.7-1.9-4.2-1.9h-9.1v22.7h3V93h6c0.7,0,1.4,0.4,2,1c0.6,0.6,1,1.4,1,2v3
	c0,1.4-1.6,3-3,3h-4.5v2.9l8.8,8.8L97.1,111.6z M77.1,96c0-1.5-0.7-3-1.9-4.2c-1.2-1.2-2.7-1.9-4.2-1.9h-3c-3.1,0-6,2.9-6,6v10.6
	c0,3.1,2.9,6,6,6h3c3.1,0,6-2.9,6-6V96z M65,82.4h3V26.3l21.2,21.2l21.2-21.2v56.1h3V21.9h-2.9L89.2,43.2L67.9,21.9l-2.9,0V82.4z
	 M57.4,96c0-1.5-0.7-3-1.9-4.2c-1.2-1.2-2.7-1.9-4.2-1.9h-3c-3.1,0-6,2.9-6,6v10.6c0,3.1,2.9,6,6,6h3c3.1,0,6-2.9,6-6V96z M37.8,96
	c0-3.6-3.1-6-6-6h-9.1v7.6h3V93h6c1.4,0,3,1.2,3,3v10.6c0,1.4-1.6,3-3,3h-6v-5.2l-5-5l-2.1,2.1l4.1,4.1v6.9h9.1c3.1,0,6-2.9,6-6V96z
	 M136.1,0v136.1H0V41.4l22.7,22.7v18.3h23.4c7,0,12.8-5.7,12.8-12.8v-35c0-7-5.7-12.8-12.8-12.8H22.7v18.9h3V24.9h20.4
	c5.4,0,9.7,4.4,9.7,9.7v35c0,5.4-4.4,9.7-9.7,9.7H25.7V62.9L0,37.1V0H136.1z M71.1,93h-3c-1.4,0-3,1.6-3,3v10.6c0,1.4,1.6,3,3,3h3
	c1.4,0,3-1.6,3-3V96c0-0.7-0.4-1.4-1-2C72.5,93.3,71.7,93,71.1,93 M53.5,94c0.6,0.6,1,1.4,1,2v10.6c0,1.4-1.6,3-3,3h-3
	c-1.4,0-3-1.6-3-3V96c0-1.4,1.6-3,3-3h3C52.1,93,52.8,93.3,53.5,94"/>
</svg>
